<svg width="171" height="125" viewBox="0 0 171 125" fill="none" xmlns="http://www.w3.org/2000/svg">
<path d="M107 27.5H96L87.75 52L71.25 3L63 27.5H52" stroke="#726868" stroke-width="6" stroke-linecap="round" stroke-linejoin="round"/>
<path d="M13.6875 100H6.11719L6.16406 93.6719H13.6875C15.25 93.6719 16.5703 93.2969 17.6484 92.5469C18.7422 91.7969 19.5703 90.6797 20.1328 89.1953C20.7109 87.6953 21 85.8516 21 83.6641V82.1875C21 80.5469 20.8359 79.1094 20.5078 77.875C20.1953 76.625 19.7266 75.5859 19.1016 74.7578C18.4766 73.9141 17.6953 73.2812 16.7578 72.8594C15.8359 72.4375 14.7734 72.2266 13.5703 72.2266H5.97656V65.875H13.5703C15.8828 65.875 18 66.2734 19.9219 67.0703C21.8594 67.8516 23.5312 68.9766 24.9375 70.4453C26.3594 71.8984 27.4531 73.625 28.2188 75.625C29 77.6094 29.3906 79.8125 29.3906 82.2344V83.6641C29.3906 86.0703 29 88.2734 28.2188 90.2734C27.4531 92.2734 26.3672 94 24.9609 95.4531C23.5547 96.9062 21.8906 98.0312 19.9688 98.8281C18.0625 99.6094 15.9688 100 13.6875 100ZM10.8281 65.875V100H2.60156V65.875H10.8281ZM32.3203 87.5781V87.0859C32.3203 85.2266 32.5859 83.5156 33.1172 81.9531C33.6484 80.375 34.4297 79.0078 35.4609 77.8516C36.4922 76.6953 37.7656 75.7969 39.2812 75.1562C40.7969 74.5 42.5469 74.1719 44.5312 74.1719C46.5312 74.1719 48.2891 74.5 49.8047 75.1562C51.3359 75.7969 52.6172 76.6953 53.6484 77.8516C54.6797 79.0078 55.4609 80.375 55.9922 81.9531C56.5234 83.5156 56.7891 85.2266 56.7891 87.0859V87.5781C56.7891 89.4219 56.5234 91.1328 55.9922 92.7109C55.4609 94.2734 54.6797 95.6406 53.6484 96.8125C52.6172 97.9688 51.3438 98.8672 49.8281 99.5078C48.3125 100.148 46.5625 100.469 44.5781 100.469C42.5938 100.469 40.8359 100.148 39.3047 99.5078C37.7734 98.8672 36.4922 97.9688 35.4609 96.8125C34.4297 95.6406 33.6484 94.2734 33.1172 92.7109C32.5859 91.1328 32.3203 89.4219 32.3203 87.5781ZM40.2188 87.0859V87.5781C40.2188 88.5312 40.2891 89.4219 40.4297 90.25C40.5703 91.0781 40.8047 91.8047 41.1328 92.4297C41.4609 93.0391 41.9062 93.5156 42.4688 93.8594C43.0312 94.2031 43.7344 94.375 44.5781 94.375C45.4062 94.375 46.0938 94.2031 46.6406 93.8594C47.2031 93.5156 47.6484 93.0391 47.9766 92.4297C48.3047 91.8047 48.5391 91.0781 48.6797 90.25C48.8203 89.4219 48.8906 88.5312 48.8906 87.5781V87.0859C48.8906 86.1641 48.8203 85.2969 48.6797 84.4844C48.5391 83.6562 48.3047 82.9297 47.9766 82.3047C47.6484 81.6641 47.2031 81.1641 46.6406 80.8047C46.0781 80.4453 45.375 80.2656 44.5312 80.2656C43.7031 80.2656 43.0078 80.4453 42.4453 80.8047C41.8984 81.1641 41.4609 81.6641 41.1328 82.3047C40.8047 82.9297 40.5703 83.6562 40.4297 84.4844C40.2891 85.2969 40.2188 86.1641 40.2188 87.0859ZM71.0156 94.375C71.75 94.375 72.375 94.2422 72.8906 93.9766C73.4219 93.6953 73.8203 93.3047 74.0859 92.8047C74.3672 92.2891 74.5 91.6719 74.4844 90.9531H81.9141C81.9297 92.8594 81.4609 94.5312 80.5078 95.9688C79.5703 97.3906 78.2891 98.5 76.6641 99.2969C75.0547 100.078 73.2344 100.469 71.2031 100.469C69.2188 100.469 67.4844 100.148 66 99.5078C64.5156 98.8516 63.2734 97.9453 62.2734 96.7891C61.2891 95.6172 60.5469 94.25 60.0469 92.6875C59.5625 91.125 59.3203 89.4297 59.3203 87.6016V87.0625C59.3203 85.2344 59.5625 83.5391 60.0469 81.9766C60.5469 80.3984 61.2891 79.0312 62.2734 77.875C63.2734 76.7031 64.5078 75.7969 65.9766 75.1562C67.4609 74.5 69.1875 74.1719 71.1562 74.1719C73.2656 74.1719 75.125 74.5703 76.7344 75.3672C78.3594 76.1641 79.6328 77.3203 80.5547 78.8359C81.4766 80.3516 81.9297 82.1875 81.9141 84.3438H74.4844C74.5 83.5781 74.3828 82.8906 74.1328 82.2812C73.8828 81.6719 73.4922 81.1875 72.9609 80.8281C72.4453 80.4531 71.7812 80.2656 70.9688 80.2656C70.1562 80.2656 69.5 80.4453 69 80.8047C68.5 81.1641 68.1172 81.6641 67.8516 82.3047C67.6016 82.9297 67.4297 83.6484 67.3359 84.4609C67.2578 85.2734 67.2188 86.1406 67.2188 87.0625V87.6016C67.2188 88.5391 67.2578 89.4219 67.3359 90.25C67.4297 91.0625 67.6094 91.7812 67.875 92.4062C68.1406 93.0156 68.5234 93.5 69.0234 93.8594C69.5234 94.2031 70.1875 94.375 71.0156 94.375ZM98.6484 74.6406V80.125H83.3672V74.6406H98.6484ZM86.5781 68.3359H94.4766V91.7266C94.4766 92.3984 94.5547 92.9219 94.7109 93.2969C94.8672 93.6562 95.1328 93.9141 95.5078 94.0703C95.8984 94.2109 96.4141 94.2812 97.0547 94.2812C97.5078 94.2812 97.8828 94.2734 98.1797 94.2578C98.4766 94.2266 98.7578 94.1875 99.0234 94.1406V99.7891C98.3516 100.008 97.6484 100.172 96.9141 100.281C96.1797 100.406 95.3984 100.469 94.5703 100.469C92.8828 100.469 91.4375 100.203 90.2344 99.6719C89.0469 99.1406 88.1406 98.3047 87.5156 97.1641C86.8906 96.0234 86.5781 94.5391 86.5781 92.7109V68.3359ZM100.102 87.5781V87.0859C100.102 85.2266 100.367 83.5156 100.898 81.9531C101.43 80.375 102.211 79.0078 103.242 77.8516C104.273 76.6953 105.547 75.7969 107.062 75.1562C108.578 74.5 110.328 74.1719 112.312 74.1719C114.312 74.1719 116.07 74.5 117.586 75.1562C119.117 75.7969 120.398 76.6953 121.43 77.8516C122.461 79.0078 123.242 80.375 123.773 81.9531C124.305 83.5156 124.57 85.2266 124.57 87.0859V87.5781C124.57 89.4219 124.305 91.1328 123.773 92.7109C123.242 94.2734 122.461 95.6406 121.43 96.8125C120.398 97.9688 119.125 98.8672 117.609 99.5078C116.094 100.148 114.344 100.469 112.359 100.469C110.375 100.469 108.617 100.148 107.086 99.5078C105.555 98.8672 104.273 97.9688 103.242 96.8125C102.211 95.6406 101.43 94.2734 100.898 92.7109C100.367 91.1328 100.102 89.4219 100.102 87.5781ZM108 87.0859V87.5781C108 88.5312 108.07 89.4219 108.211 90.25C108.352 91.0781 108.586 91.8047 108.914 92.4297C109.242 93.0391 109.688 93.5156 110.25 93.8594C110.812 94.2031 111.516 94.375 112.359 94.375C113.188 94.375 113.875 94.2031 114.422 93.8594C114.984 93.5156 115.43 93.0391 115.758 92.4297C116.086 91.8047 116.32 91.0781 116.461 90.25C116.602 89.4219 116.672 88.5312 116.672 87.5781V87.0859C116.672 86.1641 116.602 85.2969 116.461 84.4844C116.32 83.6562 116.086 82.9297 115.758 82.3047C115.43 81.6641 114.984 81.1641 114.422 80.8047C113.859 80.4453 113.156 80.2656 112.312 80.2656C111.484 80.2656 110.789 80.4453 110.227 80.8047C109.68 81.1641 109.242 81.6641 108.914 82.3047C108.586 82.9297 108.352 83.6562 108.211 84.4844C108.07 85.2969 108 86.1641 108 87.0859ZM136.055 80.9219V100H128.156V74.6406H135.539L136.055 80.9219ZM143.555 74.4531L143.414 81.7891C143.102 81.7578 142.68 81.7188 142.148 81.6719C141.617 81.625 141.172 81.6016 140.812 81.6016C139.891 81.6016 139.094 81.7109 138.422 81.9297C137.766 82.1328 137.219 82.4453 136.781 82.8672C136.359 83.2734 136.047 83.7891 135.844 84.4141C135.656 85.0391 135.57 85.7656 135.586 86.5938L134.156 85.6562C134.156 83.9531 134.32 82.4062 134.648 81.0156C134.992 79.6094 135.477 78.3984 136.102 77.3828C136.727 76.3516 137.484 75.5625 138.375 75.0156C139.266 74.4531 140.266 74.1719 141.375 74.1719C141.766 74.1719 142.148 74.1953 142.523 74.2422C142.914 74.2891 143.258 74.3594 143.555 74.4531ZM160.688 90.9297C160.688 90.3984 160.633 89.9219 160.523 89.5C160.43 89.0625 160.234 88.6562 159.938 88.2812C159.656 87.9062 159.227 87.5312 158.648 87.1562C158.07 86.7656 157.297 86.3594 156.328 85.9375C155.109 85.4375 153.914 84.875 152.742 84.25C151.57 83.6094 150.516 82.8672 149.578 82.0234C148.656 81.1641 147.914 80.1641 147.352 79.0234C146.789 77.8672 146.508 76.5234 146.508 74.9922C146.508 73.5234 146.789 72.2031 147.352 71.0312C147.93 69.8438 148.719 68.8359 149.719 68.0078C150.734 67.1641 151.93 66.5234 153.305 66.0859C154.68 65.6328 156.18 65.4062 157.805 65.4062C159.961 65.4062 161.859 65.8438 163.5 66.7188C165.156 67.5781 166.445 68.8047 167.367 70.3984C168.305 71.9766 168.773 73.8438 168.773 76H160.781C160.781 75.1406 160.672 74.3828 160.453 73.7266C160.234 73.0703 159.891 72.5547 159.422 72.1797C158.969 71.8047 158.367 71.6172 157.617 71.6172C156.945 71.6172 156.375 71.7734 155.906 72.0859C155.453 72.3984 155.109 72.8203 154.875 73.3516C154.641 73.8672 154.523 74.4375 154.523 75.0625C154.523 75.5781 154.641 76.0469 154.875 76.4688C155.109 76.875 155.43 77.2578 155.836 77.6172C156.258 77.9766 156.742 78.3203 157.289 78.6484C157.852 78.9766 158.453 79.2969 159.094 79.6094C160.641 80.1875 162.008 80.8359 163.195 81.5547C164.398 82.2578 165.406 83.0625 166.219 83.9688C167.031 84.8594 167.641 85.875 168.047 87.0156C168.469 88.1562 168.68 89.4453 168.68 90.8828C168.68 92.4141 168.43 93.7734 167.93 94.9609C167.445 96.1484 166.734 97.1562 165.797 97.9844C164.859 98.7969 163.727 99.4141 162.398 99.8359C161.086 100.258 159.602 100.469 157.945 100.469C156.43 100.469 154.938 100.25 153.469 99.8125C152.016 99.3594 150.695 98.6719 149.508 97.75C148.336 96.8125 147.398 95.6172 146.695 94.1641C145.992 92.6953 145.641 90.9531 145.641 88.9375H153.703C153.703 89.9375 153.781 90.7812 153.938 91.4688C154.094 92.1562 154.336 92.7109 154.664 93.1328C155.008 93.5391 155.445 93.8359 155.977 94.0234C156.508 94.1953 157.164 94.2812 157.945 94.2812C158.664 94.2812 159.219 94.1328 159.609 93.8359C160.016 93.5234 160.297 93.1172 160.453 92.6172C160.609 92.1016 160.688 91.5391 160.688 90.9297Z" fill="#57FF9A"/>
<path d="M10.5391 119.445V115.078C10.5391 114.635 10.4453 114.255 10.2578 113.938C10.0703 113.62 9.79688 113.378 9.4375 113.211C9.07812 113.039 8.63802 112.953 8.11719 112.953C7.63281 112.953 7.19792 113.039 6.8125 113.211C6.43229 113.378 6.13281 113.607 5.91406 113.898C5.69531 114.19 5.58594 114.516 5.58594 114.875L4.96094 114.867C4.96094 114.544 5.03646 114.234 5.1875 113.938C5.34375 113.641 5.5625 113.378 5.84375 113.148C6.13021 112.914 6.46615 112.729 6.85156 112.594C7.24219 112.458 7.66927 112.391 8.13281 112.391C8.72656 112.391 9.25 112.492 9.70312 112.695C10.1615 112.893 10.5182 113.193 10.7734 113.594C11.0286 113.995 11.1562 114.495 11.1562 115.094V119.266C11.1562 119.568 11.1771 119.872 11.2188 120.18C11.2604 120.487 11.3177 120.734 11.3906 120.922V121H10.7109C10.6536 120.802 10.6094 120.56 10.5781 120.273C10.5521 119.987 10.5391 119.711 10.5391 119.445ZM10.7422 116.203L10.7578 116.742H8.69531C8.17448 116.742 7.70833 116.792 7.29688 116.891C6.88542 116.99 6.53646 117.13 6.25 117.312C5.96354 117.495 5.74479 117.711 5.59375 117.961C5.44271 118.211 5.36719 118.492 5.36719 118.805C5.36719 119.128 5.45312 119.424 5.625 119.695C5.79688 119.966 6.03906 120.182 6.35156 120.344C6.66406 120.5 7.02604 120.578 7.4375 120.578C8 120.578 8.4974 120.482 8.92969 120.289C9.36719 120.091 9.73438 119.826 10.0312 119.492C10.3281 119.154 10.5443 118.763 10.6797 118.32L10.9531 118.773C10.8646 119.049 10.7266 119.328 10.5391 119.609C10.3516 119.891 10.1094 120.148 9.8125 120.383C9.51562 120.612 9.16667 120.799 8.76562 120.945C8.36458 121.086 7.90885 121.156 7.39844 121.156C6.86198 121.156 6.39323 121.057 5.99219 120.859C5.59635 120.656 5.28906 120.38 5.07031 120.031C4.85156 119.677 4.74219 119.273 4.74219 118.82C4.74219 118.43 4.83073 118.073 5.00781 117.75C5.1849 117.427 5.4401 117.151 5.77344 116.922C6.11198 116.688 6.52083 116.51 7 116.391C7.48438 116.266 8.02865 116.203 8.63281 116.203H10.7422ZM24.5341 112.547H25.1356V120.867C25.1356 121.591 25.0028 122.216 24.7372 122.742C24.4716 123.273 24.094 123.68 23.6044 123.961C23.12 124.247 22.5393 124.391 21.8622 124.391C21.4768 124.391 21.107 124.333 20.7528 124.219C20.4039 124.104 20.0809 123.938 19.7841 123.719C19.4924 123.505 19.2398 123.253 19.0262 122.961L19.4091 122.57C19.7424 122.982 20.1044 123.294 20.495 123.508C20.8908 123.721 21.3361 123.828 21.8309 123.828C22.4143 123.828 22.9039 123.708 23.2997 123.469C23.6955 123.229 23.995 122.888 24.1981 122.445C24.4012 122.008 24.5028 121.487 24.5028 120.883V114.406L24.5341 112.547ZM18.5262 116.852V116.688C18.5262 116.026 18.5992 115.432 18.745 114.906C18.8908 114.375 19.1018 113.924 19.3778 113.555C19.6539 113.18 19.9898 112.893 20.3856 112.695C20.7867 112.492 21.2398 112.391 21.745 112.391C22.219 112.391 22.6382 112.466 23.0028 112.617C23.3726 112.763 23.6929 112.974 23.9637 113.25C24.2398 113.521 24.4637 113.841 24.6356 114.211C24.8127 114.576 24.9455 114.979 25.0341 115.422V118.336C24.9664 118.727 24.8492 119.094 24.6825 119.438C24.5158 119.776 24.2945 120.076 24.0184 120.336C23.7424 120.591 23.4143 120.792 23.0341 120.938C22.6539 121.083 22.219 121.156 21.7294 121.156C21.2294 121.156 20.7815 121.052 20.3856 120.844C19.9898 120.635 19.6539 120.341 19.3778 119.961C19.1018 119.581 18.8908 119.128 18.745 118.602C18.5992 118.076 18.5262 117.492 18.5262 116.852ZM19.1591 116.688V116.852C19.1591 117.388 19.2111 117.883 19.3153 118.336C19.4247 118.789 19.5861 119.182 19.7997 119.516C20.0184 119.849 20.2945 120.109 20.6278 120.297C20.9611 120.484 21.3492 120.578 21.7919 120.578C22.3648 120.578 22.8466 120.474 23.2372 120.266C23.6278 120.057 23.9403 119.781 24.1747 119.438C24.4091 119.094 24.5731 118.714 24.6669 118.297V115.539C24.6096 115.273 24.521 114.992 24.4012 114.695C24.2815 114.393 24.1122 114.112 23.8934 113.852C23.6799 113.591 23.4039 113.38 23.0653 113.219C22.7268 113.052 22.3075 112.969 21.8075 112.969C21.3596 112.969 20.9664 113.062 20.6278 113.25C20.2945 113.438 20.0184 113.698 19.7997 114.031C19.5861 114.365 19.4247 114.758 19.3153 115.211C19.2111 115.664 19.1591 116.156 19.1591 116.688ZM35.9822 121.156C35.4509 121.156 34.9587 121.055 34.5056 120.852C34.0525 120.643 33.6567 120.354 33.3181 119.984C32.9796 119.609 32.714 119.167 32.5212 118.656C32.3337 118.146 32.24 117.586 32.24 116.977V116.633C32.24 116.003 32.3337 115.43 32.5212 114.914C32.714 114.393 32.9744 113.945 33.3025 113.57C33.6306 113.19 34.0082 112.898 34.4353 112.695C34.8676 112.492 35.3285 112.391 35.8181 112.391C36.3129 112.391 36.7608 112.482 37.1619 112.664C37.5629 112.846 37.9067 113.102 38.1931 113.43C38.4796 113.758 38.6983 114.148 38.8494 114.602C39.0004 115.055 39.0759 115.555 39.0759 116.102V116.625H32.6306V116.055H38.4587V115.953C38.4535 115.422 38.3442 114.93 38.1306 114.477C37.9223 114.023 37.6228 113.659 37.2322 113.383C36.8416 113.102 36.3702 112.961 35.8181 112.961C35.3754 112.961 34.9718 113.055 34.6072 113.242C34.2478 113.43 33.9379 113.69 33.6775 114.023C33.4171 114.352 33.2166 114.74 33.0759 115.188C32.9353 115.63 32.865 116.112 32.865 116.633V116.977C32.865 117.477 32.9431 117.945 33.0994 118.383C33.2556 118.82 33.4744 119.206 33.7556 119.539C34.0369 119.867 34.3676 120.125 34.7478 120.312C35.128 120.5 35.5447 120.594 35.9978 120.594C36.4874 120.594 36.9353 120.508 37.3416 120.336C37.7478 120.164 38.1176 119.862 38.4509 119.43L38.8572 119.734C38.6697 120.005 38.4431 120.247 38.1775 120.461C37.9119 120.674 37.5968 120.844 37.2322 120.969C36.8728 121.094 36.4561 121.156 35.9822 121.156ZM46.7428 114.352V121H46.1256V112.547H46.735L46.7428 114.352ZM46.6256 116.125L46.3209 115.766C46.3678 115.318 46.4772 114.891 46.6491 114.484C46.8261 114.078 47.0579 113.719 47.3444 113.406C47.636 113.094 47.9746 112.846 48.36 112.664C48.7506 112.482 49.1803 112.391 49.6491 112.391C50.0709 112.391 50.4485 112.451 50.7819 112.57C51.1152 112.685 51.3965 112.867 51.6256 113.117C51.86 113.367 52.0371 113.69 52.1569 114.086C52.2767 114.477 52.3366 114.953 52.3366 115.516V121H51.7194V115.516C51.7194 114.849 51.6282 114.333 51.4459 113.969C51.2636 113.599 51.0084 113.339 50.6803 113.188C50.3574 113.036 49.9798 112.961 49.5475 112.961C49.0475 112.961 48.6152 113.073 48.2506 113.297C47.8913 113.516 47.5944 113.794 47.36 114.133C47.1256 114.466 46.9459 114.812 46.8209 115.172C46.7011 115.531 46.636 115.849 46.6256 116.125ZM65.6284 119.359V109H66.2456V121H65.6519L65.6284 119.359ZM59.6441 116.852V116.688C59.6441 116.026 59.717 115.432 59.8628 114.906C60.0086 114.375 60.2196 113.924 60.4956 113.555C60.7717 113.18 61.1076 112.893 61.5034 112.695C61.9045 112.492 62.3576 112.391 62.8628 112.391C63.3368 112.391 63.7586 112.466 64.1284 112.617C64.4982 112.763 64.8185 112.974 65.0894 113.25C65.3602 113.521 65.5816 113.841 65.7534 114.211C65.9305 114.576 66.0607 114.979 66.1441 115.422V118.336C66.0816 118.727 65.9644 119.094 65.7925 119.438C65.6258 119.776 65.4045 120.076 65.1284 120.336C64.8576 120.591 64.5321 120.792 64.1519 120.938C63.7717 121.083 63.3368 121.156 62.8472 121.156C62.3472 121.156 61.8993 121.052 61.5034 120.844C61.1076 120.635 60.7717 120.341 60.4956 119.961C60.2196 119.581 60.0086 119.128 59.8628 118.602C59.717 118.076 59.6441 117.492 59.6441 116.852ZM60.2769 116.688V116.852C60.2769 117.388 60.329 117.883 60.4331 118.336C60.5425 118.789 60.704 119.182 60.9175 119.516C61.1362 119.849 61.4097 120.109 61.7378 120.297C62.0711 120.484 62.4618 120.578 62.9097 120.578C63.4826 120.578 63.967 120.474 64.3628 120.266C64.7586 120.057 65.0737 119.781 65.3081 119.438C65.5477 119.094 65.7144 118.714 65.8081 118.297V115.539C65.7508 115.273 65.6597 114.992 65.5347 114.695C65.4149 114.393 65.2456 114.112 65.0269 113.852C64.8133 113.591 64.5347 113.38 64.1909 113.219C63.8472 113.052 63.4253 112.969 62.9253 112.969C62.4722 112.969 62.079 113.062 61.7456 113.25C61.4175 113.438 61.1441 113.698 60.9253 114.031C60.7066 114.365 60.5425 114.758 60.4331 115.211C60.329 115.664 60.2769 116.156 60.2769 116.688ZM79.2016 119.445V115.078C79.2016 114.635 79.1078 114.255 78.9203 113.938C78.7328 113.62 78.4594 113.378 78.1 113.211C77.7406 113.039 77.3005 112.953 76.7797 112.953C76.2953 112.953 75.8604 113.039 75.475 113.211C75.0948 113.378 74.7953 113.607 74.5766 113.898C74.3578 114.19 74.2484 114.516 74.2484 114.875L73.6234 114.867C73.6234 114.544 73.699 114.234 73.85 113.938C74.0062 113.641 74.225 113.378 74.5062 113.148C74.7927 112.914 75.1286 112.729 75.5141 112.594C75.9047 112.458 76.3318 112.391 76.7953 112.391C77.3891 112.391 77.9125 112.492 78.3656 112.695C78.824 112.893 79.1807 113.193 79.4359 113.594C79.6911 113.995 79.8187 114.495 79.8187 115.094V119.266C79.8187 119.568 79.8396 119.872 79.8812 120.18C79.9229 120.487 79.9802 120.734 80.0531 120.922V121H79.3734C79.3161 120.802 79.2719 120.56 79.2406 120.273C79.2146 119.987 79.2016 119.711 79.2016 119.445ZM79.4047 116.203L79.4203 116.742H77.3578C76.837 116.742 76.3708 116.792 75.9594 116.891C75.5479 116.99 75.199 117.13 74.9125 117.312C74.626 117.495 74.4073 117.711 74.2562 117.961C74.1052 118.211 74.0297 118.492 74.0297 118.805C74.0297 119.128 74.1156 119.424 74.2875 119.695C74.4594 119.966 74.7016 120.182 75.0141 120.344C75.3266 120.5 75.6885 120.578 76.1 120.578C76.6625 120.578 77.1599 120.482 77.5922 120.289C78.0297 120.091 78.3969 119.826 78.6937 119.492C78.9906 119.154 79.2068 118.763 79.3422 118.32L79.6156 118.773C79.5271 119.049 79.3891 119.328 79.2016 119.609C79.0141 119.891 78.7719 120.148 78.475 120.383C78.1781 120.612 77.8292 120.799 77.4281 120.945C77.0271 121.086 76.5714 121.156 76.0609 121.156C75.5245 121.156 75.0557 121.057 74.6547 120.859C74.2589 120.656 73.9516 120.38 73.7328 120.031C73.5141 119.677 73.4047 119.273 73.4047 118.82C73.4047 118.43 73.4932 118.073 73.6703 117.75C73.8474 117.427 74.1026 117.151 74.4359 116.922C74.7745 116.688 75.1833 116.51 75.6625 116.391C76.1469 116.266 76.6911 116.203 77.2953 116.203H79.4047ZM88.1341 114.336V121H87.5091V112.547H88.1184L88.1341 114.336ZM88.0325 116.125L87.72 115.766C87.7617 115.318 87.8658 114.891 88.0325 114.484C88.2044 114.078 88.4309 113.719 88.7122 113.406C88.9986 113.094 89.3346 112.846 89.72 112.664C90.1106 112.482 90.5455 112.391 91.0247 112.391C91.4466 112.391 91.8242 112.448 92.1575 112.562C92.496 112.672 92.7825 112.846 93.0169 113.086C93.2513 113.32 93.4309 113.628 93.5559 114.008C93.6809 114.388 93.7434 114.844 93.7434 115.375V121H93.1184V115.391C93.1184 114.755 93.0247 114.263 92.8372 113.914C92.6497 113.565 92.3893 113.32 92.0559 113.18C91.7226 113.034 91.3398 112.961 90.9075 112.961C90.3971 112.961 89.9622 113.073 89.6028 113.297C89.2434 113.516 88.9492 113.794 88.72 114.133C88.496 114.466 88.3294 114.812 88.22 115.172C88.1106 115.531 88.0481 115.849 88.0325 116.125ZM93.7356 115.43L93.3138 115.281C93.3554 114.901 93.4622 114.539 93.6341 114.195C93.8111 113.846 94.0429 113.539 94.3294 113.273C94.6158 113.003 94.9518 112.789 95.3372 112.633C95.7278 112.471 96.1601 112.391 96.6341 112.391C97.0664 112.391 97.4518 112.451 97.7903 112.57C98.1341 112.685 98.4205 112.87 98.6497 113.125C98.8841 113.375 99.0638 113.698 99.1888 114.094C99.3138 114.484 99.3763 114.958 99.3763 115.516V121H98.7513V115.508C98.7513 114.841 98.6575 114.323 98.47 113.953C98.2825 113.583 98.0221 113.326 97.6888 113.18C97.3554 113.029 96.97 112.956 96.5325 112.961C96.069 112.966 95.6653 113.052 95.3216 113.219C94.9778 113.385 94.6914 113.596 94.4622 113.852C94.233 114.107 94.0585 114.375 93.9388 114.656C93.819 114.932 93.7513 115.19 93.7356 115.43ZM110.113 121.156C109.582 121.156 109.09 121.055 108.637 120.852C108.184 120.643 107.788 120.354 107.449 119.984C107.111 119.609 106.845 119.167 106.652 118.656C106.465 118.146 106.371 117.586 106.371 116.977V116.633C106.371 116.003 106.465 115.43 106.652 114.914C106.845 114.393 107.106 113.945 107.434 113.57C107.762 113.19 108.139 112.898 108.567 112.695C108.999 112.492 109.46 112.391 109.949 112.391C110.444 112.391 110.892 112.482 111.293 112.664C111.694 112.846 112.038 113.102 112.324 113.43C112.611 113.758 112.83 114.148 112.981 114.602C113.132 115.055 113.207 115.555 113.207 116.102V116.625H106.762V116.055H112.59V115.953C112.585 115.422 112.475 114.93 112.262 114.477C112.054 114.023 111.754 113.659 111.363 113.383C110.973 113.102 110.501 112.961 109.949 112.961C109.507 112.961 109.103 113.055 108.738 113.242C108.379 113.43 108.069 113.69 107.809 114.023C107.548 114.352 107.348 114.74 107.207 115.188C107.067 115.63 106.996 116.112 106.996 116.633V116.977C106.996 117.477 107.074 117.945 107.231 118.383C107.387 118.82 107.606 119.206 107.887 119.539C108.168 119.867 108.499 120.125 108.879 120.312C109.259 120.5 109.676 120.594 110.129 120.594C110.619 120.594 111.067 120.508 111.473 120.336C111.879 120.164 112.249 119.862 112.582 119.43L112.988 119.734C112.801 120.005 112.574 120.247 112.309 120.461C112.043 120.674 111.728 120.844 111.363 120.969C111.004 121.094 110.587 121.156 110.113 121.156ZM120.874 114.352V121H120.257V112.547H120.866L120.874 114.352ZM120.757 116.125L120.452 115.766C120.499 115.318 120.608 114.891 120.78 114.484C120.957 114.078 121.189 113.719 121.476 113.406C121.767 113.094 122.106 112.846 122.491 112.664C122.882 112.482 123.312 112.391 123.78 112.391C124.202 112.391 124.58 112.451 124.913 112.57C125.246 112.685 125.528 112.867 125.757 113.117C125.991 113.367 126.168 113.69 126.288 114.086C126.408 114.477 126.468 114.953 126.468 115.516V121H125.851V115.516C125.851 114.849 125.759 114.333 125.577 113.969C125.395 113.599 125.14 113.339 124.812 113.188C124.489 113.036 124.111 112.961 123.679 112.961C123.179 112.961 122.746 113.073 122.382 113.297C122.022 113.516 121.726 113.794 121.491 114.133C121.257 114.466 121.077 114.812 120.952 115.172C120.832 115.531 120.767 115.849 120.757 116.125ZM137.158 112.547V113.109H133.111V112.547H137.158ZM134.674 110.312H135.299V118.961C135.299 119.414 135.353 119.758 135.463 119.992C135.577 120.221 135.726 120.378 135.908 120.461C136.096 120.539 136.296 120.578 136.51 120.578C136.661 120.578 136.799 120.57 136.924 120.555C137.054 120.539 137.184 120.521 137.314 120.5L137.369 121.047C137.254 121.083 137.106 121.109 136.924 121.125C136.741 121.146 136.58 121.156 136.439 121.156C136.085 121.156 135.775 121.091 135.51 120.961C135.244 120.831 135.038 120.607 134.893 120.289C134.747 119.966 134.674 119.523 134.674 118.961V110.312ZM143.622 116.922V116.625C143.622 116.005 143.71 115.438 143.887 114.922C144.07 114.406 144.325 113.961 144.653 113.586C144.981 113.206 145.372 112.911 145.825 112.703C146.283 112.495 146.791 112.391 147.348 112.391C147.906 112.391 148.414 112.495 148.872 112.703C149.33 112.911 149.723 113.206 150.052 113.586C150.385 113.961 150.64 114.406 150.817 114.922C150.994 115.438 151.083 116.005 151.083 116.625V116.922C151.083 117.542 150.994 118.109 150.817 118.625C150.64 119.141 150.387 119.589 150.059 119.969C149.731 120.344 149.338 120.635 148.88 120.844C148.427 121.052 147.921 121.156 147.364 121.156C146.802 121.156 146.291 121.052 145.833 120.844C145.38 120.635 144.986 120.344 144.653 119.969C144.325 119.589 144.07 119.141 143.887 118.625C143.71 118.109 143.622 117.542 143.622 116.922ZM144.247 116.625V116.922C144.247 117.411 144.315 117.878 144.45 118.32C144.591 118.758 144.794 119.148 145.059 119.492C145.325 119.831 145.651 120.099 146.036 120.297C146.421 120.49 146.864 120.586 147.364 120.586C147.854 120.586 148.291 120.49 148.677 120.297C149.062 120.099 149.385 119.831 149.645 119.492C149.911 119.148 150.111 118.758 150.247 118.32C150.387 117.878 150.458 117.411 150.458 116.922V116.625C150.458 116.146 150.387 115.688 150.247 115.25C150.111 114.812 149.911 114.422 149.645 114.078C149.38 113.734 149.054 113.464 148.669 113.266C148.283 113.062 147.843 112.961 147.348 112.961C146.854 112.961 146.414 113.062 146.028 113.266C145.648 113.464 145.322 113.734 145.052 114.078C144.786 114.422 144.585 114.812 144.45 115.25C144.315 115.688 144.247 116.146 144.247 116.625ZM163.367 118.898C163.367 118.648 163.299 118.401 163.164 118.156C163.034 117.911 162.791 117.682 162.437 117.469C162.088 117.255 161.58 117.076 160.914 116.93C160.44 116.826 160.021 116.711 159.656 116.586C159.297 116.461 158.994 116.31 158.75 116.133C158.505 115.951 158.32 115.734 158.195 115.484C158.075 115.234 158.015 114.935 158.015 114.586C158.015 114.284 158.08 114 158.211 113.734C158.341 113.469 158.531 113.237 158.781 113.039C159.036 112.836 159.341 112.677 159.695 112.562C160.049 112.448 160.45 112.391 160.898 112.391C161.539 112.391 162.086 112.497 162.539 112.711C162.997 112.919 163.349 113.208 163.593 113.578C163.838 113.943 163.961 114.367 163.961 114.852H163.336C163.336 114.523 163.242 114.216 163.054 113.93C162.867 113.643 162.591 113.411 162.226 113.234C161.867 113.052 161.424 112.961 160.898 112.961C160.367 112.961 159.935 113.042 159.601 113.203C159.268 113.365 159.023 113.57 158.867 113.82C158.716 114.065 158.64 114.315 158.64 114.57C158.64 114.773 158.669 114.964 158.726 115.141C158.789 115.312 158.906 115.471 159.078 115.617C159.25 115.763 159.497 115.904 159.82 116.039C160.143 116.169 160.562 116.292 161.078 116.406C161.755 116.557 162.307 116.742 162.734 116.961C163.161 117.174 163.476 117.438 163.679 117.75C163.882 118.057 163.984 118.435 163.984 118.883C163.984 119.216 163.914 119.523 163.773 119.805C163.632 120.081 163.429 120.32 163.164 120.523C162.903 120.727 162.586 120.883 162.211 120.992C161.836 121.102 161.419 121.156 160.961 121.156C160.268 121.156 159.679 121.047 159.195 120.828C158.716 120.604 158.351 120.31 158.101 119.945C157.856 119.581 157.734 119.188 157.734 118.766H158.359C158.396 119.229 158.547 119.594 158.812 119.859C159.083 120.125 159.411 120.312 159.797 120.422C160.187 120.531 160.575 120.586 160.961 120.586C161.487 120.586 161.927 120.505 162.281 120.344C162.64 120.177 162.911 119.966 163.093 119.711C163.276 119.451 163.367 119.18 163.367 118.898Z" fill="black"/>
</svg>
